<mxfile host="app.diagrams.net" modified="2021-02-19T19:19:22.127Z" agent="5.0 (Windows NT 6.1; Win64; x64) AppleWebKit/537.36 (KHTML, like Gecko) Chrome/88.0.4324.182 Safari/537.36" etag="vd8v_cI3KXWEoRh8FIUX" version="14.3.2" type="github">
  <diagram id="YA1W6aXcYbbrDD___CQI" name="Page-1">
    <mxGraphModel dx="917" dy="441" grid="1" gridSize="10" guides="1" tooltips="1" connect="1" arrows="1" fold="1" page="1" pageScale="1" pageWidth="827" pageHeight="1169" math="0" shadow="0">
      <root>
        <mxCell id="0" />
        <mxCell id="1" parent="0" />
        <mxCell id="KCs_ojkXlYOR5Ny38NSI-4" value="&lt;h1&gt;JIRA based code changes&lt;/h1&gt;&lt;p&gt;- No need of using BUGID in commit messages&lt;/p&gt;&lt;p&gt;- Review details will be visible in JIRA&lt;/p&gt;&lt;p&gt;- Multiple commits are tracked&lt;/p&gt;" style="text;html=1;strokeColor=none;fillColor=none;spacing=5;spacingTop=-20;whiteSpace=wrap;overflow=hidden;rounded=0;" vertex="1" parent="1">
          <mxGeometry y="38" width="400" height="120" as="geometry" />
        </mxCell>
        <mxCell id="KCs_ojkXlYOR5Ny38NSI-6" value="&lt;font style=&quot;font-size: 18px&quot;&gt;&lt;b&gt;1. DEV workflow&lt;br&gt;&lt;/b&gt;&lt;/font&gt;" style="text;html=1;strokeColor=none;fillColor=none;align=center;verticalAlign=middle;whiteSpace=wrap;rounded=0;" vertex="1" parent="1">
          <mxGeometry y="148" width="200" height="50" as="geometry" />
        </mxCell>
        <mxCell id="KCs_ojkXlYOR5Ny38NSI-15" value="" style="edgeStyle=orthogonalEdgeStyle;rounded=0;orthogonalLoop=1;jettySize=auto;html=1;" edge="1" parent="1" source="KCs_ojkXlYOR5Ny38NSI-7" target="KCs_ojkXlYOR5Ny38NSI-8">
          <mxGeometry relative="1" as="geometry" />
        </mxCell>
        <mxCell id="KCs_ojkXlYOR5Ny38NSI-7" value="Create JIRA Ticket" style="rounded=1;whiteSpace=wrap;html=1;" vertex="1" parent="1">
          <mxGeometry x="100" y="198" width="120" height="60" as="geometry" />
        </mxCell>
        <mxCell id="KCs_ojkXlYOR5Ny38NSI-16" value="" style="edgeStyle=orthogonalEdgeStyle;rounded=0;orthogonalLoop=1;jettySize=auto;html=1;" edge="1" parent="1" source="KCs_ojkXlYOR5Ny38NSI-8" target="KCs_ojkXlYOR5Ny38NSI-10">
          <mxGeometry relative="1" as="geometry" />
        </mxCell>
        <mxCell id="KCs_ojkXlYOR5Ny38NSI-8" value="Create branch through the JIRA&lt;br&gt;(A private branch having release branch as the base)" style="rounded=1;whiteSpace=wrap;html=1;" vertex="1" parent="1">
          <mxGeometry x="270" y="188" width="120" height="80" as="geometry" />
        </mxCell>
        <mxCell id="KCs_ojkXlYOR5Ny38NSI-14" value="" style="edgeStyle=orthogonalEdgeStyle;rounded=0;orthogonalLoop=1;jettySize=auto;html=1;" edge="1" parent="1" source="KCs_ojkXlYOR5Ny38NSI-9" target="KCs_ojkXlYOR5Ny38NSI-7">
          <mxGeometry relative="1" as="geometry" />
        </mxCell>
        <mxCell id="KCs_ojkXlYOR5Ny38NSI-9" value="Developer" style="shape=umlActor;verticalLabelPosition=bottom;verticalAlign=top;html=1;outlineConnect=0;" vertex="1" parent="1">
          <mxGeometry x="20" y="198" width="30" height="60" as="geometry" />
        </mxCell>
        <mxCell id="KCs_ojkXlYOR5Ny38NSI-17" value="" style="edgeStyle=orthogonalEdgeStyle;rounded=0;orthogonalLoop=1;jettySize=auto;html=1;" edge="1" parent="1" source="KCs_ojkXlYOR5Ny38NSI-10" target="KCs_ojkXlYOR5Ny38NSI-11">
          <mxGeometry relative="1" as="geometry" />
        </mxCell>
        <mxCell id="KCs_ojkXlYOR5Ny38NSI-10" value="Update all the changes in the private branch" style="rounded=1;whiteSpace=wrap;html=1;" vertex="1" parent="1">
          <mxGeometry x="450" y="188" width="120" height="80" as="geometry" />
        </mxCell>
        <mxCell id="KCs_ojkXlYOR5Ny38NSI-19" style="edgeStyle=orthogonalEdgeStyle;rounded=1;orthogonalLoop=1;jettySize=auto;html=1;" edge="1" parent="1" source="KCs_ojkXlYOR5Ny38NSI-11" target="KCs_ojkXlYOR5Ny38NSI-12">
          <mxGeometry relative="1" as="geometry">
            <Array as="points">
              <mxPoint x="730" y="298" />
              <mxPoint x="120" y="298" />
            </Array>
          </mxGeometry>
        </mxCell>
        <mxCell id="KCs_ojkXlYOR5Ny38NSI-11" value="Create Pull-request" style="rounded=1;whiteSpace=wrap;html=1;" vertex="1" parent="1">
          <mxGeometry x="620" y="188" width="120" height="80" as="geometry" />
        </mxCell>
        <mxCell id="KCs_ojkXlYOR5Ny38NSI-21" value="" style="edgeStyle=orthogonalEdgeStyle;rounded=1;orthogonalLoop=1;jettySize=auto;html=1;" edge="1" parent="1" source="KCs_ojkXlYOR5Ny38NSI-12" target="KCs_ojkXlYOR5Ny38NSI-13">
          <mxGeometry relative="1" as="geometry" />
        </mxCell>
        <mxCell id="KCs_ojkXlYOR5Ny38NSI-12" value="Add reviewer" style="rounded=1;whiteSpace=wrap;html=1;" vertex="1" parent="1">
          <mxGeometry x="60" y="328" width="120" height="80" as="geometry" />
        </mxCell>
        <mxCell id="KCs_ojkXlYOR5Ny38NSI-13" value="Reviewer approve &amp;amp; perform merge with auto close option for source branch" style="rounded=1;whiteSpace=wrap;html=1;" vertex="1" parent="1">
          <mxGeometry x="280" y="328" width="120" height="80" as="geometry" />
        </mxCell>
        <mxCell id="KCs_ojkXlYOR5Ny38NSI-22" value="&lt;font style=&quot;font-size: 14px&quot;&gt;&lt;b&gt;Conditions: &lt;/b&gt;Branch is in unlock state&lt;br&gt;How DEV identifies a reviewer?&amp;nbsp;&lt;br&gt;What if the repo. was owned by single person?&amp;nbsp;&lt;br&gt;What if the commits are more and very old during pull-request?&amp;nbsp;&lt;br&gt;How to track changes of non-release branches? Same way as the release branch&lt;br&gt;&lt;/font&gt;" style="text;html=1;strokeColor=none;fillColor=none;align=left;verticalAlign=middle;whiteSpace=wrap;rounded=0;" vertex="1" parent="1">
          <mxGeometry y="478" width="635" height="90" as="geometry" />
        </mxCell>
      </root>
    </mxGraphModel>
  </diagram>
</mxfile>
